<svg xmlns="http://www.w3.org/2000/svg" viewBox="0 0 30 30"><defs><style>.cls-1{fill:#fff;}.cls-2{fill:#f8a46f;}.cls-3{fill:#f27e97;}.cls-4{fill:#f27b6f;}.cls-5{fill:#6badd7;}.cls-6{fill:#49beae;}.cls-7{fill:#373838;}</style></defs><g id="Layer_2" data-name="Layer 2"><g id="Layer_1-2" data-name="Layer 1"><rect class="cls-1" width="30" height="30" rx="4.97"/><path class="cls-2" d="M8.22,26.85a.85.85,0,0,0,.32-.25.57.57,0,0,0,.11-.25,1,1,0,0,0,0-.25.59.59,0,0,0-.17-.32,1.22,1.22,0,0,0-.25-.2l-.36-.2a1.35,1.35,0,0,1-.33-.26.69.69,0,0,1-.17-.3.38.38,0,0,1,0-.21.22.22,0,0,1,.15-.16.47.47,0,0,1,.16,0,.17.17,0,0,1,.1,0,.16.16,0,0,1,.07.07.37.37,0,0,1,0,.12l0,.12,0,.09a.33.33,0,0,0,.09.28.39.39,0,0,0,.43.12.38.38,0,0,0,.26-.3.43.43,0,0,0,0-.16.07.07,0,0,0,0-.05.61.61,0,0,0-.15-.24.75.75,0,0,0-.34-.18.8.8,0,0,0-.21,0,1.29,1.29,0,0,0-.44,0l-.14,0h0l-.08,0a.81.81,0,0,0-.29.26.66.66,0,0,0-.12.27.64.64,0,0,0,.09.47.87.87,0,0,0,.17.21l.22.16.12.09.08,0,0,0h.07l0,0a1.88,1.88,0,0,1,.23.16l.12.11a.33.33,0,0,1,.06.1.23.23,0,0,1,0,.18.25.25,0,0,1-.11.12.38.38,0,0,1-.17.08.45.45,0,0,1-.28,0,.32.32,0,0,1-.19-.17,1,1,0,0,1,0-.17.19.19,0,0,0,0-.08.06.06,0,0,0,0,0h0a0,0,0,0,1,0,0h0s0,0,0,0A.18.18,0,0,0,7,26.13a.2.2,0,0,0-.21.16.58.58,0,0,0,0,.19.73.73,0,0,0,.3.35h.18l0,0,.2,0a1.15,1.15,0,0,0,.32,0,1.31,1.31,0,0,0,.32-.1"/><path class="cls-2" d="M15.07,27a.75.75,0,0,0,.37-.2.64.64,0,0,0,.14-.22.84.84,0,0,0,.07-.35v-2l-.09,0a.5.5,0,0,0-.21,0,.2.2,0,0,0-.17.16.38.38,0,0,0,0,.1c0,.25,0,.49,0,.74a1,1,0,0,1,0,.3.73.73,0,0,1-.07.19.38.38,0,0,1-.11.11.17.17,0,0,1-.18,0l-.07-.06a.77.77,0,0,1-.08-.19,1.47,1.47,0,0,1,0-.36c0-.14,0-.29,0-.44s0,0,0,0a.3.3,0,0,0-.13,0h0a.39.39,0,0,0-.18,0,.22.22,0,0,0-.12.13.59.59,0,0,0,0,.14c0,.12,0,.24,0,.36a.86.86,0,0,0,.09.39.57.57,0,0,0,.24.27l0,0a.41.41,0,0,0,.19,0,.47.47,0,0,0,.39-.13,1,1,0,0,0,.13-.18s0,0,0,0h0v.65c0,.05,0,.1,0,.15l0,.17a.37.37,0,0,1,0,.11.18.18,0,0,1-.15.09.11.11,0,0,1-.13-.08.19.19,0,0,1,0-.13s0-.05,0-.08a.17.17,0,0,0,0-.12.31.31,0,0,0-.3-.23s-.06,0-.08,0a.23.23,0,0,0-.17.17.31.31,0,0,0,0,.19.52.52,0,0,0,.14.19l.08,0h0l0,0a.79.79,0,0,0,.22.06,1.09,1.09,0,0,0,.31,0"/><path class="cls-2" d="M20.11,24.32h0l-.08,0a.46.46,0,0,0-.17.22.25.25,0,0,0,0,.17.27.27,0,0,0,.27.2h.08a.28.28,0,0,0,.18-.36s0,0,0-.06a.2.2,0,0,1,.23-.2.26.26,0,0,1,.17.12.37.37,0,0,1,0,.34.26.26,0,0,1-.1.13.31.31,0,0,1-.13.06c-.1,0-.2,0-.3.06l-.12,0h0l-.08,0a.47.47,0,0,0-.2.17.52.52,0,0,0-.11.4.32.32,0,0,0,0,.14.65.65,0,0,0,.17.2.6.6,0,0,0,.23.1s0,0,.05,0,0,0,0,0h0a1,1,0,0,0,.24,0,.54.54,0,0,0,.32-.21s0,0,0,0h0a.29.29,0,0,0,.2.19.55.55,0,0,0,.22,0,.16.16,0,0,0,.1,0l0,0s0,0,0,0l0-.05a.19.19,0,0,1-.05-.13.13.13,0,0,1,0-.06c0-.25,0-.51,0-.76a1,1,0,0,0-.05-.33.67.67,0,0,0-.28-.32,1,1,0,0,0-.42-.14.91.91,0,0,0-.43.07h0m.71.68v.47a.6.6,0,0,1-.06.27.36.36,0,0,1-.15.19.21.21,0,0,1-.13.05.24.24,0,0,1-.22-.1.33.33,0,0,1-.07-.29.37.37,0,0,1,.12-.23,1,1,0,0,1,.19-.15l.17-.12a.4.4,0,0,0,.14-.15h0Z"/><path class="cls-2" d="M9.84,24.65a.43.43,0,0,1,0,.25.29.29,0,0,1-.18.22l-.15,0-.2,0-.07,0H9.19a.51.51,0,0,0-.17.07.49.49,0,0,0-.16.16.72.72,0,0,0-.09.27.49.49,0,0,0,.12.37.64.64,0,0,0,.32.18h0a.88.88,0,0,0,.28,0,.6.6,0,0,0,.23-.1.35.35,0,0,0,.14-.13s0,0,0,0,0,0,0,0a.28.28,0,0,0,.15.15.57.57,0,0,0,.29,0l.09,0s0,0,0,0a0,0,0,0,0,0,0l0,0a.2.2,0,0,1,0-.09v-.87a.85.85,0,0,0-.08-.35.69.69,0,0,0-.31-.32,1.25,1.25,0,0,0-.25-.09H9.53a1,1,0,0,0-.24,0l-.09,0h0a.44.44,0,0,0-.16.1.32.32,0,0,0-.12.18.25.25,0,0,0,0,.19.27.27,0,0,0,.32.16h0a.29.29,0,0,0,.19-.18.37.37,0,0,0,0-.11s0-.07,0-.1a.16.16,0,0,1,0-.16.2.2,0,0,1,.26,0,.37.37,0,0,1,.12.13m0,.45v.56a.61.61,0,0,1-.12.34.34.34,0,0,1-.16.13.23.23,0,0,1-.27-.07.35.35,0,0,1-.09-.3.48.48,0,0,1,.14-.25.86.86,0,0,1,.18-.14l.17-.12a.5.5,0,0,0,.14-.15h0Z"/><path class="cls-2" d="M16.5,26.29h0s0,0,0,0h.1a.79.79,0,0,0,.37-.07.92.92,0,0,0,.22-.17.86.86,0,0,0,.23-.39.9.9,0,0,0,.05-.43,1.08,1.08,0,0,0-.11-.4.94.94,0,0,0-.26-.3.73.73,0,0,0-.39-.15.6.6,0,0,0-.32.05h0l0,0h0l0,0h0l-.08.06a1,1,0,0,0-.19.26,1.06,1.06,0,0,0-.13.39v.15a.86.86,0,0,0,0,.28,1,1,0,0,0,.17.33.66.66,0,0,0,.19.18l.08.05h.1l.06,0m.22-1.69a.23.23,0,0,1,.07.07.67.67,0,0,1,.12.2,1.3,1.3,0,0,1,.09.39,1.51,1.51,0,0,1,0,.3,1,1,0,0,1-.07.35.37.37,0,0,1-.07.14l0,0a.16.16,0,0,1-.23,0,.24.24,0,0,1-.08-.09,1.24,1.24,0,0,1-.1-.2,2.82,2.82,0,0,1-.07-.31c0-.08,0-.16,0-.26s0-.1,0-.16a1.14,1.14,0,0,1,.1-.36.31.31,0,0,1,.07-.09.17.17,0,0,1,.19,0"/><path class="cls-2" d="M22.62,24.56a.27.27,0,0,0,.21.31l.06,0A.22.22,0,0,1,23,25a1.29,1.29,0,0,1,0,.19,1.92,1.92,0,0,1-.05.41,1.31,1.31,0,0,1-.1.32,1,1,0,0,1-.13.27.31.31,0,0,1-.09.11l-.08.05a.13.13,0,0,1-.13-.05.24.24,0,0,1-.06-.09,1.14,1.14,0,0,1-.09-.26l-.06-.26-.09-.46c0-.13-.05-.26-.07-.39a.3.3,0,0,0-.08-.17s0,0-.05,0h0a.35.35,0,0,0-.13,0,.66.66,0,0,0-.28,0l0,0h0c0,.08,0,.15.05.22a2.56,2.56,0,0,0,.05.27l.06.32.06.33a2.25,2.25,0,0,0,.09.35,1.19,1.19,0,0,0,.13.25.05.05,0,0,0,0,0h0a.68.68,0,0,0,.12.12h0a.62.62,0,0,0,.19.07h.18a.76.76,0,0,0,.18-.09,1.31,1.31,0,0,0,.25-.32,2.17,2.17,0,0,0,.15-.35,3.15,3.15,0,0,0,.11-.44,2.71,2.71,0,0,0,0-.4,1.88,1.88,0,0,0,0-.34.62.62,0,0,0-.07-.23.25.25,0,0,0-.17-.13h0a.29.29,0,0,0-.21.06.27.27,0,0,0-.1.17"/><path class="cls-2" d="M10.63,26.39a.53.53,0,0,0,0,.13.22.22,0,0,0,.1.13.53.53,0,0,0,.38,0,.07.07,0,0,0,0-.05V25.53a.52.52,0,0,1,0-.17.48.48,0,0,1,.08-.18.31.31,0,0,1,.11-.09.21.21,0,0,1,.17,0,.24.24,0,0,1,.11.06l.08.12a1.29,1.29,0,0,1,.08.28c0,.06,0,.12,0,.19v.67a.41.41,0,0,0,0,.11.22.22,0,0,0,.18.18.57.57,0,0,0,.29,0,0,0,0,0,0,0,0,.07.07,0,0,0,0-.05v-1a1.23,1.23,0,0,0,0-.2.8.8,0,0,0-.14-.36.69.69,0,0,0-.18-.16.57.57,0,0,0-.6-.05.41.41,0,0,0-.17.12h0s0,0,0,0h0s0,0,0,0V23.94s0-.07,0-.1a.28.28,0,0,0-.15-.2h0a0,0,0,0,1,0,0h0s0,0,0,0a.51.51,0,0,0-.3,0l0,0a0,0,0,0,0,0,.05l0,0a.35.35,0,0,1,.06.14v2.52"/><path class="cls-2" d="M17.86,24.22h0v0l0,0-.05.09h0a.35.35,0,0,1-.15.07h0a.08.08,0,0,0,0,.07s0,.05.06.06h.09v1a1.21,1.21,0,0,0,0,.19.54.54,0,0,0,.05.22h0a.68.68,0,0,0,.26.32.91.91,0,0,0,.38.13h0s0,0,.05,0,0-.06-.05-.07l-.12-.06a.38.38,0,0,1-.09-.15.57.57,0,0,1,0-.18v-1.3a.07.07,0,0,1,0-.05h.07a.06.06,0,0,0,.06-.05.07.07,0,0,0-.06-.07H18.2a0,0,0,0,1,0,0v-.12a.49.49,0,0,0,0-.12.27.27,0,0,0-.11-.19A.34.34,0,0,0,17.9,24h0a.55.55,0,0,1,0,.22"/><path class="cls-2" d="M19.23,26.37a.68.68,0,0,0,.22-.12.43.43,0,0,0,.16-.38l0-.11a.4.4,0,0,0-.15-.19,1.48,1.48,0,0,0-.21-.13L19,25.3a.52.52,0,0,1-.17-.19.44.44,0,0,1-.06-.16.16.16,0,0,1,.08-.16.22.22,0,0,1,.16,0,.1.1,0,0,1,.09.1v.05s0,0,0,.05a.2.2,0,0,0,0,.07.21.21,0,0,0,0,.17.29.29,0,0,0,.23.1.26.26,0,0,0,.23-.22.27.27,0,0,0-.07-.24.49.49,0,0,0-.14-.11.81.81,0,0,0-.25-.08.88.88,0,0,0-.39.05l0,0a.48.48,0,0,0-.2.17.37.37,0,0,0-.08.21.43.43,0,0,0,.11.33.77.77,0,0,0,.19.17h0v0h0l.21.13.17.13.06.07a.15.15,0,0,1,0,.17l-.05.05a.37.37,0,0,1-.25.06.2.2,0,0,1-.16-.13.19.19,0,0,1,0-.1.11.11,0,0,0,0-.08h0s0,0,0,0l0,0a.13.13,0,0,0-.18.05s0,0,0,.05a.23.23,0,0,0,0,.14.44.44,0,0,0,.17.19l.07,0h0a.67.67,0,0,0,.28.06.77.77,0,0,0,.26,0"/><path class="cls-2" d="M13.86,24.73a.06.06,0,0,0,.06-.06s0-.05-.06-.06h-.08v-.17a.68.68,0,0,0,0-.14.26.26,0,0,0-.11-.14.22.22,0,0,0-.17,0s0,0,0,.06v.07s0,.06,0,.08h0v0l0,.11h0s0,0,0,0h0a.28.28,0,0,1-.15.08h0a.07.07,0,0,0,0,.06.06.06,0,0,0,0,.06h.06s0,0,0,0v1.07a1,1,0,0,0,0,.24.59.59,0,0,0,.06.14v0a.52.52,0,0,0,.18.21.86.86,0,0,0,.49.18h0a.2.2,0,0,0,0-.11H14a.26.26,0,0,1-.13-.08.54.54,0,0,1-.07-.13.64.64,0,0,1,0-.2V24.76a0,0,0,0,1,0,0h.07"/><path class="cls-2" d="M13.06,26.54l0,0a.24.24,0,0,1-.06-.11V25.14a.44.44,0,0,0,0-.1.24.24,0,0,0-.12-.14.36.36,0,0,0-.25,0,.17.17,0,0,0-.12,0l0,0a0,0,0,0,0,0,0l0,.05a.16.16,0,0,1,.05.11.2.2,0,0,1,0,.07v1.2a.25.25,0,0,0,.06.15l0,0a.25.25,0,0,0,.12.08.57.57,0,0,0,.29,0l0,0s0,0,0-.05"/><path class="cls-2" d="M13,24.44a.23.23,0,0,0-.17-.18.19.19,0,0,0-.2,0,.23.23,0,0,0,0,.37h0a.26.26,0,0,0,.24,0,.25.25,0,0,0,.13-.27"/><path class="cls-3" d="M23.21,22.51a.65.65,0,0,1-.18.38.58.58,0,0,1-.46.11.42.42,0,0,1-.29-.21,1.79,1.79,0,0,1-.09-.86,6.84,6.84,0,0,0-.06-.91,5.07,5.07,0,0,0-.46-1.57,3.9,3.9,0,0,0-.56-.83,3.54,3.54,0,0,0-2.67-1.16,4.09,4.09,0,0,0-1.14.17,3.26,3.26,0,0,0-2.39,2l0,.05c0,.11-.14.39-.24.64a.5.5,0,0,1-.48.33.51.51,0,0,1-.41-.21.48.48,0,0,1-.07-.46,5.73,5.73,0,0,1,1.14-2.08,4.88,4.88,0,0,1,2.5-1.38,5,5,0,0,1,3,.28,4.85,4.85,0,0,1,2.17,1.85,6.51,6.51,0,0,1,.77,3.29,2.74,2.74,0,0,1,0,.57"/><path class="cls-4" d="M20.44,13.79a1.25,1.25,0,0,1-1.08-2.11,1.2,1.2,0,0,1,1.83.22,1.26,1.26,0,0,1-.75,1.89"/><path class="cls-4" d="M10.47,15.11a.59.59,0,0,1-1.07.33.55.55,0,0,1,.3-.8.53.53,0,0,1,.77.47"/><path class="cls-5" d="M19,7.22a4.93,4.93,0,0,1,1,1.69,2.23,2.23,0,0,1,.23,1c0,.15-.26.2-.38.16-.44-.15-.48-.81-.57-1.19a2.15,2.15,0,0,0-1-1.26,2.28,2.28,0,0,0-.76-.3c-.25,0-.82.06-.87-.32s.73-.46,1-.4A2.83,2.83,0,0,1,19,7.22"/><path class="cls-6" d="M6.78,6.77c0,.06,0,.15.09.16S7,6.88,7,6.81a5.66,5.66,0,0,0,.15-.59,4,4,0,0,1,.47-1.1,2.32,2.32,0,0,1,1-.67,2.89,2.89,0,0,0,1-.63.74.74,0,0,0,.24-.59c-.08-.56-.81.08-1,.19a.11.11,0,0,1-.08,0c-.11,0,0-.29-.05-.36s-.35,0-.47.06a2.69,2.69,0,0,1-.27.2c-.17.08-.19,0-.26-.16A.33.33,0,0,0,7.35,3,.51.51,0,0,0,7,3.21a1.13,1.13,0,0,0-.2.91,4.86,4.86,0,0,1,.16,1c0,.38-.2,1.27-.19,1.66"/><path class="cls-4" d="M23.22,11.11c0,.09,0,.38-.17.39a4.64,4.64,0,0,1-.66,0c-.28,0-.36,0-.37-.22s0-.9,0-1.26l0-1.51a4.13,4.13,0,0,0-1-2.8A2.72,2.72,0,0,0,19.59,5a5.26,5.26,0,0,0-2.12.28A1.47,1.47,0,0,1,16,5a1.85,1.85,0,0,1-.34-.5A3,3,0,0,0,15.42,4a.79.79,0,0,0-.5-.28c-.95-.16-1.62.65-2.44.93a1.55,1.55,0,0,1-1.18,0,1,1,0,0,1-.55-1A.73.73,0,0,1,11.64,3c.32.1.48.42.76.57a1.46,1.46,0,0,0,1,0,4,4,0,0,0,.44-.17A3.66,3.66,0,0,1,15.07,3a1.13,1.13,0,0,1,.69.19,1.49,1.49,0,0,1,.47.8,1,1,0,0,0,1.17.66C18.68,4.4,19.82,4,21,4.8a5.09,5.09,0,0,1,2.15,3.73,22.12,22.12,0,0,1,.06,2.58"/><path class="cls-7" d="M15.6,4.31l-.08-.18.08.18"/><path class="cls-3" d="M14.82,4.86v0a.57.57,0,0,0-.73-.25.53.53,0,0,0-.31.48.44.44,0,0,0,.2.39.47.47,0,0,0,.28.09l.24,0c.22,0,.3.35.53.3a.18.18,0,0,0,.09-.06.17.17,0,0,0,0-.07A.56.56,0,0,0,15,5.37a.39.39,0,0,1-.12-.19,1.28,1.28,0,0,1,0-.19.65.65,0,0,0,0-.13"/><path class="cls-4" d="M9.52,21.47c-.42,0-.84,0-1.26,0s-.91-.06-1.2.18a.86.86,0,0,0,0,1.19,1.22,1.22,0,0,0,.63.15,6.77,6.77,0,0,0,.9,0h4.08c.23,0,.54,0,.71-.18A.72.72,0,0,0,13,21.6a11.51,11.51,0,0,0-2.28-.12H9.52"/><path class="cls-2" d="M15,21.17A2.19,2.19,0,0,1,16.7,21a2.22,2.22,0,0,0,1.35.08,1.19,1.19,0,0,0,.26-.11l.17-.1a.07.07,0,0,1,.09,0,.64.64,0,0,1-.06.54,1.1,1.1,0,0,1-.61.44c-.66.19-1.49-.13-2,.33-.23.19-.33.49-.58.67a.69.69,0,0,1-1-.24c-.24-.48.22-1.2.7-1.48"/><path class="cls-6" d="M15.79,20.36a.25.25,0,0,0,0,.08.13.13,0,0,0,.11.1.2.2,0,0,0,.18-.12c0-.06,0-.13,0-.19s0,0,0-.05a.84.84,0,0,1,.59-.25c.3-.06.37-.24.59-.41.55-.43.76.45,1.17.61s.54-.47.89-.29a.91.91,0,0,1,.41.63c0,.9-.42,1.17-.42,1.82a.75.75,0,0,0,1.28.52c.61-.5.54-1.84.29-2.55a2.79,2.79,0,0,0-1.48-1.69,2.8,2.8,0,0,0-3,.71,2,2,0,0,0-.23.27,2.5,2.5,0,0,0-.21.35,1.46,1.46,0,0,0-.16.36.3.3,0,0,0,0,.1"/><path class="cls-5" d="M9.3,17.85a1,1,0,0,1-.13-.16c-.11-.17-.34-.77,0-.86a.16.16,0,0,1,.15,0c.13.09.21.26.38.24s.19-.53.28-.72a.34.34,0,0,1,.41-.19c.18.08.12.35.1.51s0,.05,0,.07a0,0,0,0,0,0,0,.05.05,0,0,0,0,0c.06-.07.06-.17.1-.26a.22.22,0,0,1,.31-.1c.3.11.2.51.08.75-.32.68-1.19,1.23-1.73.67"/><path class="cls-2" d="M12.12,16.14A1,1,0,0,1,12,16c-.11-.17-.35-.77,0-.86a.19.19,0,0,1,.16,0c.12.08.2.25.37.24s.19-.53.28-.73a.34.34,0,0,1,.41-.18c.18.08.12.34.1.51,0,0,0,0,0,.06s0,0,0,0,0,0,0,0a.69.69,0,0,0,.1-.25.23.23,0,0,1,.31-.11c.31.12.2.52.09.76-.33.67-1.19,1.23-1.74.67"/><path class="cls-5" d="M12.71,20.16c.34.1.26-.28.38-.67s.4-.64.07-.75a.75.75,0,0,0-.45,1.42"/><path class="cls-2" d="M11.27,20.56h0a.1.1,0,0,1-.17.05.91.91,0,0,0-.64-.25,1.06,1.06,0,0,0-.4.08,1.08,1.08,0,0,0-.18.11l-.05,0a.14.14,0,0,1-.19,0l0,0-.17-.11a1,1,0,0,0-.41-.1.93.93,0,0,0-.54.16l-.12.09s0,.07-.08.06-.08-.08-.11-.11L8,20.46a1,1,0,0,0-.42-.1.87.87,0,0,0-.68.27.08.08,0,0,1-.14,0,.28.28,0,0,1,0-.09.75.75,0,0,1,.83-.64.91.91,0,0,1,.63.25.1.1,0,0,0,.14,0A.9.9,0,0,1,9,19.89a.83.83,0,0,1,.41.1.56.56,0,0,1,.21.16.12.12,0,0,0,.16,0l.06-.06.18-.11a1,1,0,0,1,.41-.08.75.75,0,0,1,.81.67"/><path class="cls-3" d="M11.27,19.49h0a.1.1,0,0,1-.17.06.91.91,0,0,0-.64-.26,1.06,1.06,0,0,0-.4.08,1.08,1.08,0,0,0-.18.11l-.05,0a.14.14,0,0,1-.19,0l0,0-.17-.11a1,1,0,0,0-.41-.1.93.93,0,0,0-.54.16l-.12.09s0,.07-.08.06-.08-.08-.11-.11L8,19.39a1,1,0,0,0-.42-.1.87.87,0,0,0-.68.27.08.08,0,0,1-.14,0,.28.28,0,0,1,0-.09.75.75,0,0,1,.83-.64.91.91,0,0,1,.63.25.1.1,0,0,0,.14,0A.94.94,0,0,1,9,18.82a1,1,0,0,1,.41.1.56.56,0,0,1,.21.16.12.12,0,0,0,.16,0L9.87,19l.18-.11a1.15,1.15,0,0,1,.41-.08.75.75,0,0,1,.81.67"/><path class="cls-5" d="M14.52,16.82c.19.29.37-.06.71-.28s.72-.24.53-.53a.75.75,0,0,0-1.24.81"/><path class="cls-5" d="M18.17,15.43c0,.35.32.19.73.23s.71.26.74-.09a.7.7,0,0,0-.68-.7.69.69,0,0,0-.79.56"/><path class="cls-6" d="M9.08,11.15a.85.85,0,0,0,.15.28.52.52,0,0,0,.63.18,1.49,1.49,0,0,0,.4-.31A1.93,1.93,0,0,1,10.8,11a1,1,0,0,1,.79,0c.22.1.36.34.6.41s.62-.15.93-.12a2.55,2.55,0,0,1,.54.15,4.31,4.31,0,0,0,1.55.22,1,1,0,0,0,.48-.11.44.44,0,0,0,.13-.71.71.71,0,0,0-.59-.09,3,3,0,0,1-1.37,0c-.48-.19-.58-.72-.81-1.13a.45.45,0,0,0-.8-.06,2,2,0,0,0-.21.54.69.69,0,0,1-.18.36.61.61,0,0,1-.53,0c-.45-.13-.83-.44-1.29-.56-.76-.2-1.18.62-1,1.25"/><path class="cls-2" d="M22.34,13.86a.24.24,0,0,0-.25.22c0,.56-.07,1.7-.06,1.86s.1,1.25.65,1.13.58-.7.54-1.15a11.88,11.88,0,0,1,0-1.79.25.25,0,0,0,0-.15.29.29,0,0,0-.19-.07l-.67-.05m.33,2.68c-.42.16-.27-1-.13-1.53,0-.07.13-.09.15,0,.13.41.38,1.4,0,1.55"/><path class="cls-6" d="M22.47,12.3a.25.25,0,0,1,0-.07.3.3,0,0,1,.29,0,.22.22,0,0,1,.14.25.11.11,0,0,0,0,.13c.05,0,.11,0,.16,0a.3.3,0,0,1,.08.19c0,.1,0,.22,0,.33a.2.2,0,0,1-.08.17.24.24,0,0,1-.12,0,4.17,4.17,0,0,1-.5,0c-.11,0-.26,0-.34-.08a.37.37,0,0,1-.05-.18c0-.09,0-.17,0-.26s0-.05,0-.07a.18.18,0,0,1,.14-.09.34.34,0,0,0,.16-.1c0-.07,0-.16,0-.25"/><path class="cls-2" d="M22.63,4.92a.28.28,0,0,0,0-.15,1.42,1.42,0,0,0-.17-.67,1,1,0,0,1-.12-.37.52.52,0,0,1,.23-.51A1.32,1.32,0,0,1,23.09,3a0,0,0,0,1,0,0,.78.78,0,0,0-.16.24.81.81,0,0,0-.07.22.65.65,0,0,0,.05.27c.06.19.16.37.23.56a.89.89,0,0,1,0,.6.56.56,0,0,1-.42.34.57.57,0,0,1-.52-.2c-.06-.07.18-.07.18-.07s.15,0,.2-.09"/><path class="cls-3" d="M21.56,4a.25.25,0,0,1-.14.06,1.34,1.34,0,0,1-.68-.22,3.93,3.93,0,0,0-2-.4,1.15,1.15,0,0,0-.57.14c-.21.12-.36.36-.59.43a.48.48,0,0,1-.29,0A.6.6,0,0,1,17,3.76a.44.44,0,0,1,0-.43.6.6,0,0,1,.53-.27A17.77,17.77,0,0,1,19.4,3c.61,0,1.23,0,1.83,0a.37.37,0,0,1,.38.23c.06.16.1.58-.05.7"/><path class="cls-2" d="M9.38,12.62a4.63,4.63,0,0,1,.42.32l.06.05s.05,0,.05.06,0,.07-.07.09l-.41.25a3.54,3.54,0,0,1-.41.26c-.15.08-.2-.14-.17-.25a.15.15,0,0,1,.06-.09l.06,0,.06,0v0a1.67,1.67,0,0,1-.12-.16.23.23,0,0,1,0-.16.75.75,0,0,1,.15-.09h0S9,12.69,9,12.67a.54.54,0,0,1-.09-.22s0-.11,0-.12a.07.07,0,0,1,.06,0,4.38,4.38,0,0,1,.42.28"/><path class="cls-6" d="M8.37,13.42a.31.31,0,0,1,.14-.18s0,0,0,0a0,0,0,0,0,0,0,.39.39,0,0,1-.13-.2.15.15,0,0,1,0-.13.12.12,0,0,1,.05-.07,0,0,0,0,0,0-.07.43.43,0,0,1,0-.12,1.13,1.13,0,0,1,0-.18.25.25,0,0,1,0-.07,0,0,0,0,0,0,0,10.65,10.65,0,0,0-1.13,0,.56.56,0,0,0-.53.44,1,1,0,0,0,.16.83c.14.17.75.13,1,.12a2.75,2.75,0,0,0,.41,0c.09,0,0-.17,0-.25"/><path class="cls-2" d="M9.26,5.34a1,1,0,0,1,.82.23.93.93,0,0,1,.45-.67.27.27,0,0,1,.38.16l.3.91a.29.29,0,0,1-.19.37,1.15,1.15,0,0,0-.57.39.19.19,0,0,1-.25.06,1.3,1.3,0,0,0-.75-.21.19.19,0,0,1-.22-.09A2.75,2.75,0,0,1,9,5.6c0-.16.18-.25.28-.26"/><path class="cls-3" d="M8.27,16.07a.89.89,0,0,1-.17-.59s.11,0,.22-.23-.26-.46-.43-.56-1.16-.45-1,.07.2.73.36.73c0,0-.1.26-.11.28a1.75,1.75,0,0,1-.13.28c0,.09-.11.17-.15.25a.28.28,0,0,0,0,.29A9.51,9.51,0,0,1,7.51,18s.06.1.11.1a.1.1,0,0,0,.1-.06c0-.09.07-.17.1-.25l.28-.64a3.68,3.68,0,0,1,.23-.44c.06-.1.14-.18.11-.3a1,1,0,0,0-.17-.32m-.41.63a.21.21,0,0,1-.22.21.21.21,0,0,1-.21-.21.21.21,0,0,1,.21-.22.22.22,0,0,1,.22.22"/><path class="cls-2" d="M12.28,13.8H12a.2.2,0,0,1-.11,0,.15.15,0,0,1-.07-.11.18.18,0,0,1,.07-.15c.11-.11.21-.23.33-.33a.16.16,0,0,1,.15,0,.64.64,0,0,1,.27.22c.07.07.19.17.19.27s-.2.17-.31.17h-.19"/><path class="cls-4" d="M10.94,13.8h-.33a.35.35,0,0,1-.11,0,.14.14,0,0,1-.07-.11.18.18,0,0,1,.07-.15c.11-.1.2-.23.32-.32a.16.16,0,0,1,.16,0,.64.64,0,0,1,.27.22c.07.07.19.17.19.27s-.2.17-.31.17h-.19"/><path class="cls-3" d="M13.57,13.8h-.33a.25.25,0,0,1-.12,0,.19.19,0,0,1-.07-.11.21.21,0,0,1,.07-.15c.11-.11.21-.23.33-.33a.2.2,0,0,1,.15,0,1,1,0,0,1,.28.22c.06.08.18.18.18.28s-.2.17-.31.17h-.18"/><path class="cls-2" d="M12.27,12.86h-.33a.2.2,0,0,1-.11,0,.12.12,0,0,1-.07-.11c0-.06,0-.1.07-.14s.2-.23.32-.33a.15.15,0,0,1,.15,0,.67.67,0,0,1,.28.22c.07.07.19.17.19.28s-.2.17-.31.16h-.19"/><path class="cls-4" d="M10.93,12.86H10.6a.2.2,0,0,1-.11,0,.12.12,0,0,1-.07-.11c0-.06,0-.1.06-.14s.21-.23.33-.33.1-.06.15,0a.67.67,0,0,1,.28.22c.07.07.19.17.19.28s-.2.17-.31.16h-.19"/><path class="cls-3" d="M13.55,12.86h-.32l-.12,0a.14.14,0,0,1-.07-.11.17.17,0,0,1,.07-.14c.11-.11.21-.23.33-.33a.14.14,0,0,1,.15,0,.74.74,0,0,1,.28.22c.06.07.18.17.18.28s-.2.16-.31.16h-.19"/><path class="cls-4" d="M20.86,16.1,20.68,16a.1.1,0,0,1-.06-.05.08.08,0,0,1,0-.08.1.1,0,0,1,.08-.06,1.33,1.33,0,0,1,.28-.1.09.09,0,0,1,.09,0,.41.41,0,0,1,.1.21c0,.05.06.14,0,.2s-.16.05-.22,0l-.11-.06"/><path class="cls-4" d="M13.78,17.84l-.12.17-.06,0a.08.08,0,0,1-.08,0,.12.12,0,0,1,0-.09c0-.1,0-.19-.05-.29a.12.12,0,0,1,0-.1.51.51,0,0,1,.22-.06c.06,0,.15,0,.21,0s0,.17,0,.22l-.08.1"/><path class="cls-4" d="M17,15.69l-.21,0h-.07a.09.09,0,0,1-.06-.06.13.13,0,0,1,0-.1,1.77,1.77,0,0,1,.17-.24.08.08,0,0,1,.09,0,.54.54,0,0,1,.2.1s.13.09.14.16-.11.12-.17.14H17"/><path class="cls-5" d="M18.37,22.82a1.35,1.35,0,0,1-.9.18c-.25,0-.65-.07-.74-.35,0-.12,0-.18.14-.11a.6.6,0,0,0,.62,0c.19-.09.34-.23.51-.32s.41-.14.52,0a.42.42,0,0,1-.15.52"/><path class="cls-6" d="M19.67,6.78A4.38,4.38,0,0,1,20.6,8.6s0,.07.06.09c.31.25.38-.83.37-.95A2,2,0,0,0,19.73,6c-.16-.06-1-.35-1,0s.4.44.59.56a1.86,1.86,0,0,1,.32.23"/><path class="cls-2" d="M17.54,13.44a2.71,2.71,0,0,1-1.88,1,.47.47,0,0,1-.44-.56.49.49,0,0,1,.47-.42,1.77,1.77,0,0,0,.67-.26,2.56,2.56,0,0,0,1-1.2,1.86,1.86,0,0,0-.85-2.36,1.48,1.48,0,0,0-.93.08,1.21,1.21,0,0,1-1.19-.07A1.51,1.51,0,0,1,14,8.59c-.07-.54-.14-1.1-.78-1.23s-1.08.55-1.28,1.08-.68,1.11-1.33.86c-.35-.13-.61-.43-.95-.59a1.27,1.27,0,0,0-1.06,0,1.49,1.49,0,0,0-.83,1,1.65,1.65,0,0,0,0,.73,2.21,2.21,0,0,1,.17.84.48.48,0,0,1-.33.4c-.59.17-.73-.83-.76-1.26a2.83,2.83,0,0,1,.45-1.73A2.21,2.21,0,0,1,9.41,7.61a2.55,2.55,0,0,1,.91.36c.23.14.55.3.8.11s.3-.56.43-.84a1.63,1.63,0,0,1,1.93-.82,1.9,1.9,0,0,1,.94.56,1.8,1.8,0,0,1,.35.77c.08.32,0,.79.31,1a.64.64,0,0,0,.6,0,1.83,1.83,0,0,1,1.85.39,3,3,0,0,1,.84,2.13,3.26,3.26,0,0,1-.83,2.18"/></g></g></svg>